<svg xmlns="http://www.w3.org/2000/svg" width="30" height="16" viewBox="0 0 30 16"><g><g><path d="M29.695.304a1.063 1.063 0 0 0-1.499 0l-13.183 13.17L1.803.304a1.063 1.063 0 0 0-1.498 0 1.055 1.055 0 0 0 0 1.494L14.237 15.69c.207.206.466.31.75.31.258 0 .543-.104.75-.31L29.669 1.798c.44-.412.44-1.082.026-1.494z"/><path fill="#fff" d="M29.695.304a1.063 1.063 0 0 0-1.499 0l-13.183 13.17L1.803.304a1.063 1.063 0 0 0-1.498 0 1.055 1.055 0 0 0 0 1.494L14.237 15.69c.207.206.466.31.75.31.258 0 .543-.104.75-.31L29.669 1.798c.44-.412.44-1.082.026-1.494z"/></g></g></svg>